<?xml version="1.0" encoding="UTF-8"?><svg id="Layer_2" xmlns="http://www.w3.org/2000/svg" viewBox="0 0 100 100"><defs><style>.cls-1{fill:#231f20;}</style></defs><g id="Layer_1-2"><path class="cls-1" d="M75.02,7c3.1,0,6.18,.85,8.9,2.47,8.57,5.09,11.58,16.37,6.84,25.31l-40.76,53.65L9.24,34.78c-4.75-8.94-1.74-20.21,6.84-25.31,2.72-1.62,5.8-2.47,8.9-2.47,6.39,0,12.35,3.56,15.57,9.29l3.35,5.96,6.1,10.88,6.1-10.88,3.35-5.96c3.22-5.73,9.18-9.29,15.57-9.29M75.02,0C66.38,0,57.98,4.61,53.35,12.87l-3.35,5.96-3.35-5.96C42.02,4.61,33.62,0,24.98,0c-4.24,0-8.54,1.11-12.48,3.45h0C.55,10.56-3.55,26.29,3.35,38.59l46.65,61.41,46.65-61.41c6.9-12.3,2.81-28.04-9.15-35.14h0C83.56,1.11,79.26,0,75.02,0h0Z"/></g></svg>