<?xml version="1.0" encoding="UTF-8"?><svg id="Layer_2" xmlns="http://www.w3.org/2000/svg" viewBox="0 0 86.93 80.96"><defs><style>.cls-1{fill:#fff;}</style></defs><g id="Layer_1-2"><g><path class="cls-1" d="M50.43,27.21c2.16-1.27,4.56-1.91,7.2-1.91v13.03h-3.38c-3.07,0-5.38,.66-6.91,1.98-1.54,1.32-2.3,3.64-2.3,6.95v18.65h0c-6.8,0-12.31-5.51-12.31-12.31v-15.55c0-6.8,5.51-12.31,12.31-12.31h0v6.7c1.44-2.21,3.24-3.95,5.4-5.22Z"/><g><path class="cls-1" d="M67.55,80.96h7.48c1.17,0,2.25-.65,2.77-1.69,5.85-11.65,9.13-24.64,9.13-38.35s-3.44-27.38-9.59-39.26C76.81,.63,75.74,0,74.58,0h-7.51c-2.38,0-3.87,2.56-2.71,4.64,6.1,10.86,9.56,23.2,9.56,36.28s-3.29,24.8-9.11,35.46c-1.13,2.07,.38,4.59,2.74,4.59Z"/><path class="cls-1" d="M19.85,0h-7.51c-1.16,0-2.23,.63-2.76,1.66C3.44,13.54,0,26.85,0,40.92s3.28,26.71,9.13,38.35c.52,1.04,1.61,1.69,2.77,1.69h7.48c2.36,0,3.87-2.52,2.74-4.59-5.82-10.66-9.11-22.7-9.11-35.46S16.46,15.5,22.56,4.64C23.73,2.56,22.24,0,19.85,0Z"/></g></g></g></svg>