<svg xmlns="http://www.w3.org/2000/svg" viewBox="0 0 72.36 72.36"><defs><style>.cls-1{fill:#f4f3e1;}</style></defs><g id="Layer_2" data-name="Layer 2"><g id="Layer_1-2" data-name="Layer 1"><path class="cls-1" d="M42.44,20.93a11.57,11.57,0,0,1,6-1.58v10.8H45.6q-3.83,0-5.73,1.65T38,37.55V53H27.75V19.71H38v5.55A13.42,13.42,0,0,1,42.44,20.93Z"/><polygon class="cls-1" points="72.36 0 49.87 0 49.87 12 60.37 12 60.37 60.37 49.87 60.37 49.87 72.36 72.36 72.36 72.36 0"/><polygon class="cls-1" points="12 60.37 12 12 22.5 12 22.5 0 0 0 0 72.36 22.5 72.36 22.5 60.37 12 60.37"/></g></g></svg>