<svg width="20" height="20" viewBox="0 0 20 20" fill="none" xmlns="http://www.w3.org/2000/svg">
<path d="M13.2555 16.1945H6.72777C6.6099 16.1945 6.49685 16.2413 6.4135 16.3246C6.33015 16.408 6.28333 16.521 6.28333 16.6389C6.28333 16.7568 6.33015 16.8698 6.4135 16.9532C6.49685 17.0365 6.6099 17.0833 6.72777 17.0833H13.2555C13.3734 17.0833 13.4865 17.0365 13.5698 16.9532C13.6532 16.8698 13.7 16.7568 13.7 16.6389C13.7 16.521 13.6532 16.408 13.5698 16.3246C13.4865 16.2413 13.3734 16.1945 13.2555 16.1945Z" fill="black"/>
<path d="M12.2222 17.8611H7.77776C7.65988 17.8611 7.54684 17.9079 7.46349 17.9913C7.38014 18.0746 7.33331 18.1877 7.33331 18.3055C7.33331 18.4234 7.38014 18.5364 7.46349 18.6198C7.54684 18.7031 7.65988 18.75 7.77776 18.75H12.2222C12.3401 18.75 12.4531 18.7031 12.5365 18.6198C12.6198 18.5364 12.6666 18.4234 12.6666 18.3055C12.6666 18.1877 12.6198 18.0746 12.5365 17.9913C12.4531 17.9079 12.3401 17.8611 12.2222 17.8611Z" fill="black"/>
<path d="M10 1.25C8.37925 1.25 6.82486 1.89385 5.67881 3.0399C4.53275 4.18596 3.8889 5.74034 3.8889 7.36111C3.87922 8.24929 4.06907 9.12832 4.44446 9.93333C4.63044 10.276 4.83828 10.6063 5.06668 10.9222C5.51172 11.5188 5.88467 12.1659 6.17779 12.85C6.37948 13.5741 6.4896 14.3207 6.50557 15.0722H9.66668V12.0056L8.07779 10.2667L9.74446 8.6C9.829 8.5234 9.93977 8.48224 10.0538 8.48504C10.1679 8.48785 10.2765 8.53441 10.3572 8.61508C10.4378 8.69576 10.4844 8.80436 10.4872 8.91842C10.49 9.03247 10.4488 9.14323 10.3722 9.22778L9.32224 10.2778L10.5556 11.6667V15.0944H13.5C13.516 14.3429 13.6261 13.5964 13.8278 12.8722C14.1209 12.1881 14.4939 11.541 14.9389 10.9444C15.1667 10.6176 15.3727 10.2761 15.5556 9.92222C15.931 9.11721 16.1208 8.23818 16.1111 7.35C16.1082 5.73116 15.463 4.17963 14.3173 3.03597C13.1716 1.89232 11.6189 1.25 10 1.25ZM10.25 6.66667L8.73335 8.18333C8.69292 8.22795 8.64385 8.26389 8.58912 8.28896C8.53438 8.31404 8.47512 8.32774 8.41493 8.32922C8.35474 8.3307 8.29488 8.31994 8.23898 8.29759C8.18307 8.27523 8.1323 8.24175 8.08972 8.19918C8.04715 8.15661 8.01367 8.10583 7.99132 8.04992C7.96896 7.99402 7.9582 7.93416 7.95968 7.87397C7.96116 7.81378 7.97486 7.75452 7.99994 7.69979C8.02502 7.64505 8.06095 7.59598 8.10557 7.55556L9.62224 6.03889C9.66266 5.99427 9.71173 5.95833 9.76647 5.93326C9.8212 5.90818 9.88046 5.89448 9.94065 5.893C10.0008 5.89152 10.0607 5.90228 10.1166 5.92464C10.1725 5.94699 10.2233 5.98047 10.2659 6.02304C10.3084 6.06561 10.3419 6.11639 10.3643 6.1723C10.3866 6.2282 10.3974 6.28806 10.3959 6.34825C10.3944 6.40844 10.3807 6.4677 10.3556 6.52244C10.3306 6.57717 10.2946 6.62624 10.25 6.66667Z" fill="black"/>
</svg>
