<svg width="20" height="20" viewBox="0 0 20 20" fill="none" xmlns="http://www.w3.org/2000/svg">
<path d="M10 1.25C8.37925 1.25 6.82486 1.89385 5.67881 3.0399C4.53275 4.18596 3.8889 5.74034 3.8889 7.36111C3.87922 8.24929 4.06907 9.12832 4.44446 9.93333C4.63044 10.276 4.83828 10.6063 5.06668 10.9222C5.51172 11.5188 5.88467 12.1659 6.17779 12.85C6.37948 13.5741 6.4896 14.3207 6.50557 15.0722H7.61668C7.59962 14.1902 7.46701 13.3142 7.22224 12.4667C6.90158 11.6931 6.48738 10.9617 5.9889 10.2889C5.78728 10.0147 5.60178 9.72905 5.43335 9.43333C5.13485 8.78006 4.98677 8.06812 5.00001 7.35C5.00001 6.01876 5.52885 4.74205 6.47017 3.80072C7.4115 2.85939 8.68822 2.33056 10.0195 2.33056C11.3507 2.33056 12.6274 2.85939 13.5687 3.80072C14.5101 4.74205 15.0389 6.01876 15.0389 7.35C15.0399 8.07528 14.8766 8.79136 14.5611 9.44444C14.3927 9.74016 14.2072 10.0258 14.0056 10.3C13.5098 10.9697 13.0975 11.6973 12.7778 12.4667C12.5321 13.3178 12.3994 14.1976 12.3833 15.0833H13.4945C13.5104 14.3318 13.6205 13.5852 13.8222 12.8611C14.1154 12.177 14.4883 11.5299 14.9333 10.9333C15.1626 10.6103 15.3705 10.2725 15.5556 9.92222C15.931 9.11721 16.1208 8.23818 16.1111 7.35C16.1082 5.73116 15.463 4.17963 14.3173 3.03597C13.1716 1.89232 11.6189 1.25 10 1.25Z" fill="white"/>
<path d="M10.35 8.61661C10.2667 8.53349 10.1538 8.48682 10.0361 8.48682C9.91841 8.48682 9.80553 8.53349 9.72221 8.61661L8.05554 10.2833L9.64443 12.0222V15.0999H10.5555V11.6666L9.3111 10.3055L10.3611 9.2555C10.4032 9.21332 10.4364 9.16309 10.4588 9.1078C10.4811 9.05252 10.492 8.99331 10.491 8.9337C10.49 8.87409 10.477 8.8153 10.4527 8.76082C10.4285 8.70635 10.3936 8.6573 10.35 8.61661Z" fill="white"/>
<path d="M13.2555 16.1945H6.72777C6.6099 16.1945 6.49685 16.2413 6.4135 16.3246C6.33015 16.408 6.28333 16.521 6.28333 16.6389C6.28333 16.7568 6.33015 16.8698 6.4135 16.9532C6.49685 17.0365 6.6099 17.0833 6.72777 17.0833H13.2555C13.3734 17.0833 13.4865 17.0365 13.5698 16.9532C13.6532 16.8698 13.7 16.7568 13.7 16.6389C13.7 16.521 13.6532 16.408 13.5698 16.3246C13.4865 16.2413 13.3734 16.1945 13.2555 16.1945Z" fill="white"/>
<path d="M12.2222 17.8611H7.77776C7.65988 17.8611 7.54684 17.9079 7.46349 17.9913C7.38014 18.0746 7.33331 18.1877 7.33331 18.3055C7.33331 18.4234 7.38014 18.5364 7.46349 18.6198C7.54684 18.7031 7.65988 18.75 7.77776 18.75H12.2222C12.3401 18.75 12.4531 18.7031 12.5365 18.6198C12.6198 18.5364 12.6666 18.4234 12.6666 18.3055C12.6666 18.1877 12.6198 18.0746 12.5365 17.9913C12.4531 17.9079 12.3401 17.8611 12.2222 17.8611Z" fill="white"/>
<path d="M9.62223 6.04996L8.10557 7.56662C8.02896 7.65117 7.98781 7.76193 7.99061 7.87598C7.99342 7.99004 8.03998 8.09864 8.12065 8.17931C8.20133 8.25999 8.30993 8.30655 8.42398 8.30935C8.53804 8.31216 8.6488 8.271 8.73335 8.1944L10.25 6.66662C10.2946 6.6262 10.3306 6.57713 10.3556 6.52239C10.3807 6.46765 10.3944 6.40839 10.3959 6.34821C10.3974 6.28802 10.3866 6.22815 10.3643 6.17225C10.3419 6.11635 10.3084 6.06557 10.2659 6.023C10.2233 5.98042 10.1725 5.94695 10.1166 5.92459C10.0607 5.90224 10.0008 5.89148 9.94065 5.89296C9.88046 5.89444 9.8212 5.90813 9.76647 5.93321C9.71173 5.95829 9.66266 5.99423 9.62223 6.03884V6.04996Z" fill="white"/>
</svg>
